<svg width="108" height="120" viewBox="0 0 108 120" fill="none" xmlns="http://www.w3.org/2000/svg">
<path d="M10.1064 119.349V94.7417H16.8462C19.6249 94.7417 21.566 94.8313 22.6696 95.0106C23.6648 95.1555 24.6282 95.4682 25.5187 95.9355C26.388 96.4024 27.1073 97.1059 27.5935 97.9645C28.0835 98.8627 28.3301 99.8735 28.3087 100.897C28.3087 102.298 27.953 103.41 27.2418 104.234C26.5305 105.058 25.397 105.682 23.8414 106.104C25.5898 106.237 26.9566 106.851 27.9418 107.944C28.927 109.038 29.4202 110.497 29.4213 112.323C29.447 113.53 29.1604 114.722 28.5894 115.785C28.0416 116.776 27.2133 117.583 26.2086 118.105C25.2328 118.595 24.1818 118.919 23.0991 119.063C21.867 119.253 19.8504 119.348 17.0491 119.349H10.1064ZM16.3254 104.574H17.6781C19.3352 104.574 20.4726 104.392 21.0903 104.028C21.7081 103.664 22.0158 103.034 22.0136 102.138C22.0136 101.208 21.725 100.555 21.1478 100.18C20.5707 99.8042 19.4474 99.6165 17.7779 99.6165H16.3254V104.574ZM16.3254 114.322H18.6774C20.2691 114.322 21.3964 114.124 22.0592 113.727C22.722 113.33 23.0529 112.666 23.0518 111.735C23.0518 110.704 22.7491 109.983 22.1438 109.574C21.5384 109.165 20.4179 108.961 18.7823 108.962H16.3254V114.322Z" fill="#3C3C3B"/>
<path d="M31.6719 119.349V102.373H37.3194V106.373C37.9011 104.916 38.6963 103.823 39.7052 103.096C40.7141 102.369 41.9355 102.004 43.3694 102.002C43.6038 102.002 43.8422 102.011 44.0846 102.028C44.327 102.044 44.5704 102.07 44.8151 102.104L44.2435 107.55C43.5782 107.321 42.8794 107.203 42.1756 107.202C40.7192 107.202 39.5959 107.647 38.8057 108.537C38.0155 109.428 37.6209 110.692 37.6221 112.328V119.354L31.6719 119.349Z" fill="#3C3C3B"/>
<path d="M68.5076 107.953C68.0092 107.492 67.4421 107.112 66.8269 106.826C66.294 106.592 65.7181 106.472 65.136 106.473C63.9479 106.473 63.0038 106.868 62.3038 107.657C61.6038 108.446 61.2532 109.51 61.2521 110.851C61.2521 112.152 61.6162 113.188 62.3444 113.96C63.0726 114.732 64.0533 115.119 65.2865 115.12C65.8747 115.124 66.4567 115.001 66.9926 114.758C67.5666 114.486 68.0831 114.107 68.5144 113.641V118.833C67.8354 119.217 67.1104 119.513 66.3568 119.714C65.633 119.906 64.8872 120.002 64.1384 120C61.5277 120 59.413 119.162 57.7942 117.487C56.1755 115.812 55.3656 113.608 55.3644 110.874C55.3644 108.217 56.1913 106.046 57.845 104.361C59.4986 102.676 61.619 101.83 64.206 101.825C64.9916 101.817 65.7754 101.901 66.5411 102.077C67.2336 102.245 67.8967 102.517 68.5076 102.883V107.953Z" fill="#3C3C3B"/>
<path d="M71.3365 119.349V94.7417H77.219V109.791L83.3874 102.378H90.8171L83.1912 110.541L91.5104 119.349H83.6224L77.219 111.801V119.349H71.3365Z" fill="#3C3C3B"/>
<path d="M92.0886 117.937L93.3331 113.372C94.1823 114.119 95.1549 114.714 96.2076 115.128C97.2161 115.529 98.291 115.737 99.3763 115.741C100.127 115.741 100.699 115.621 101.091 115.38C101.276 115.276 101.428 115.122 101.532 114.937C101.636 114.751 101.687 114.541 101.679 114.329C101.679 113.579 100.89 113.019 99.3121 112.65C98.8048 112.526 98.3821 112.42 98.0693 112.33C96.2769 111.836 94.9744 111.189 94.1617 110.389C93.3489 109.589 92.9425 108.549 92.9425 107.271C92.9425 105.624 93.5625 104.307 94.8025 103.321C96.0425 102.335 97.7204 101.842 99.8362 101.842C100.953 101.845 102.066 101.972 103.155 102.22C104.343 102.493 105.5 102.884 106.608 103.389L105.365 107.506C104.616 106.992 103.803 106.579 102.946 106.278C102.157 106.001 101.328 105.856 100.492 105.849C99.8092 105.849 99.294 105.955 98.9468 106.169C98.7834 106.259 98.6482 106.394 98.5563 106.557C98.4644 106.72 98.4193 106.905 98.426 107.092C98.426 107.697 99.2101 108.204 100.778 108.614C101.137 108.713 101.405 108.783 101.585 108.832C103.658 109.425 105.101 110.122 105.913 110.925C106.726 111.728 107.132 112.811 107.132 114.177C107.132 115.912 106.466 117.316 105.132 118.387C103.799 119.458 102.034 119.993 99.8379 119.991C98.4375 120.004 97.0413 119.834 95.6851 119.484C94.4167 119.148 93.2047 118.627 92.0886 117.937Z" fill="#3C3C3B"/>
<path d="M0 119.349V103.003H6.00093V119.349H0Z" fill="#3C3C3B"/>
<path d="M6.00093 94.7417H0V100.743H6.00093V94.7417Z" fill="#04B0A4"/>
<path d="M46.8069 119.349V103.003H52.8062V119.349H46.8069Z" fill="#3C3C3B"/>
<path d="M52.8078 94.7417H46.8069V100.743H52.8078V94.7417Z" fill="#04B0A4"/>
<path d="M53.5738 16.6484L67.9733 24.9523L82.3745 16.5824L53.5738 0V16.6484Z" fill="#662483"/>
<path d="M82.3745 16.5824L53.5738 33.2409L67.9716 41.5685L82.3695 33.2528L82.3745 16.5824Z" fill="#36A9E1"/>
<path d="M53.5738 33.241L82.3745 49.8741L67.9615 58.1916L53.5738 49.8843V33.241Z" fill="#662483"/>
<path d="M39.1777 8.31738L24.7731 16.6196V33.1987L39.1726 24.9421L39.1777 8.31738Z" fill="#91368B"/>
<path d="M82.3745 49.874L53.5738 66.4954V83.1201L82.3661 66.5072L82.3745 49.874Z" fill="#04B0A4"/>
<path d="M39.1777 27.6694L24.7562 36.0444L24.7731 74.8602L39.1777 66.4836V27.6694Z" fill="#91368B"/>
<path d="M53.5738 0L41.5753 6.92753L41.555 23.5675L53.5738 16.6484V0Z" fill="#91368B"/>
</svg>
