<svg width="73" height="104" viewBox="0 0 73 104" fill="none" xmlns="http://www.w3.org/2000/svg">
<path d="M36.0567 20.8305L54.0733 31.2203L72.0921 20.748L36.0567 0V20.8305Z" fill="#662483"/>
<path d="M72.0921 20.7479L36.0567 41.5911L54.0712 52.0105L72.0858 41.6059L72.0921 20.7479Z" fill="#36A9E1"/>
<path d="M36.0567 41.5911L72.0921 62.4025L54.0585 72.8093L36.0567 62.4152V41.5911Z" fill="#662483"/>
<path d="M18.0442 10.4067L0.0211334 20.7945V41.5382L18.0378 31.2076L18.0442 10.4067Z" fill="#91368B"/>
<path d="M72.0921 62.4026L36.0567 83.1992V104L72.0816 83.214L72.0921 62.4026Z" fill="#04B0A4"/>
<path d="M18.0442 34.6201L0 45.0988L0.0211543 93.6652L18.0442 83.1843V34.6201Z" fill="#91368B"/>
<path d="M36.0566 0L21.0442 8.66773L21.0188 29.4876L36.0566 20.8305V0Z" fill="#91368B"/>
</svg>
